# xmcd
#
# Track frame offsets: 
#        150
#        16987
#        28125
#        42487
#        58999
#        73886
#        88474
#        106324
#        122974
#        142116
#        158879
#
# Disc length: 2394 seconds
#
# Revision: 0
# Processed by: cddbd v1.5.2PL0 Copyright (c) Steve Scherf et al.
# Submitted via: ExactAudioCopy v1.0b3
#
DISCID=ab09580b
DTITLE=Tubie and the Touchtones - When the Rubber meets the Road
DYEAR=2012
DGENRE=Blues
TTITLE0=When the rubber meets the road
TTITLE1=Annie's eyes
TTITLE2=Me and my baby
TTITLE3=South Main St.
TTITLE4=Strange Things
TTITLE5=Daddy was a blues man
TTITLE6=Share
TTITLE7=Got a date later
TTITLE8=The truth is known
TTITLE9=Your shoes
TTITLE10=Navasota get down
EXTD=
EXTT0=
EXTT1=
EXTT2=
EXTT3=
EXTT4=
EXTT5=
EXTT6=
EXTT7=
EXTT8=
EXTT9=
EXTT10=
PLAYORDER=
